# xmcd CD database file
#
# Track frame offsets:
#	187
#	16907
#	33950
#	51632
#	68612
#	86962
#	106532
#	125837
#	142947
#	162992
#
# Disc length: 2388 seconds
#
# Revision: 0
# Processed by: cddbd v1.5.1PL0 Copyright (c) Steve Scherf et al.
# Submitted via: CDex 1.51
#
DISCID=8209520a
DTITLE=鈴木さえ子 - 科学と神秘
DYEAR=1991
DGENRE=JPop
TTITLE0=Island
TTITLE1=銀のエンゼル
TTITLE2=鍵とスタンプ
TTITLE3=Hacker ARUIWA 2 Ear Drums
TTITLE4=魔法の国
TTITLE5=血を吸うカメラ
TTITLE6=nightmare
TTITLE7=おかしなおかしなフェリーボート
TTITLE8=天国への螺旋階段
TTITLE9=恋する惑星
EXTD=YEAR: 1991
EXTT0=
EXTT1=
EXTT2=
EXTT3=
EXTT4=
EXTT5=
EXTT6=
EXTT7=
EXTT8=
EXTT9=
PLAYORDER=
